<svg width="35" height="30" viewBox="0 0 35 30" fill="none" xmlns="http://www.w3.org/2000/svg">
<path d="M24.2025 15.1898C23.7571 15.1898 23.3044 15.2159 22.8625 15.2578C22.8374 15.0747 22.823 14.8917 22.823 14.7087C22.823 14.5256 22.8374 14.3452 22.8625 14.1648C23.3044 14.204 23.7571 14.2275 24.2025 14.2275C29.1817 14.2275 33.4891 11.7748 34.689 8.26038L35.0015 7.34256L33.7441 7.10199C32.846 6.93202 31.9228 6.84573 30.9959 6.84573C26.0167 6.84573 21.7093 9.29848 20.5095 12.8129C20.2975 13.4326 20.1897 14.0732 20.1897 14.7113C20.1897 15.3493 20.2975 15.9899 20.5095 16.6097C21.7093 20.124 26.0167 22.5768 30.9959 22.5768C31.9264 22.5768 32.8496 22.4905 33.7441 22.3205L35.0015 22.08L34.689 21.1622C33.4891 17.6425 29.1817 15.1898 24.2025 15.1898ZM30.9959 8.7572C31.2222 8.7572 31.445 8.76505 31.6677 8.77812C30.378 10.8988 27.4789 12.3082 24.1989 12.3082C23.9762 12.3082 23.7499 12.3004 23.5271 12.2873C24.8168 10.164 27.7124 8.7572 30.9959 8.7572ZM30.9959 20.6523C27.716 20.6523 24.8204 19.2428 23.5271 17.1222C23.7499 17.1091 23.9762 17.1013 24.1989 17.1013C27.4789 17.1013 30.3744 18.5107 31.6677 20.6313C31.445 20.647 31.2186 20.6523 30.9959 20.6523Z" fill="#003DA5"/>
<path d="M20.1287 2.27494C19.6652 1.69182 19.0976 1.15054 18.4474 0.672022L17.5349 0L16.5972 0.656333C13.0155 3.16661 12.2539 7.11245 14.7435 10.2477C14.9663 10.5301 15.2213 10.7968 15.4908 11.0583C15.286 11.1655 15.074 11.2649 14.8549 11.359C14.6393 11.4505 14.413 11.5316 14.1867 11.6074C14.0143 11.3067 13.8167 11.0138 13.5903 10.7314C11.1044 7.5962 6.02818 6.10311 1.25018 7.1046L0 7.36871L0.341285 8.2813C0.585574 8.9324 0.944822 9.55735 1.40825 10.1405C3.37693 12.6246 6.96941 14.0759 10.7523 14.0759C11.7474 14.0759 12.7533 13.9765 13.752 13.7673C14.5962 13.5895 15.4117 13.3385 16.1697 13.0168C16.9278 12.6952 17.6355 12.3082 18.2677 11.8663C21.853 9.35339 22.6146 5.41017 20.1287 2.27494ZM3.69307 9.18081C3.5817 9.03961 3.47752 8.89318 3.38052 8.74674C6.54909 8.50095 9.67454 9.62272 11.3127 11.6911C11.4241 11.8323 11.5283 11.9761 11.6253 12.1252C8.45669 12.3683 5.33124 11.2466 3.69307 9.18081ZM17.4882 2.81622C17.6139 2.94957 17.7361 3.08816 17.8474 3.22937C19.4892 5.29773 19.2629 7.82892 17.384 9.70117C17.2547 9.56781 17.1361 9.42922 17.0248 9.28802C15.3866 7.21966 15.6129 4.68846 17.4882 2.81622Z" fill="#78BE20"/>
<path d="M18.2713 17.5432C17.6391 17.0986 16.9313 16.7116 16.1733 16.3926C15.4153 16.0736 14.5998 15.8226 13.7556 15.6422C8.97759 14.6407 3.90142 16.1311 1.41542 19.269C0.951993 19.8521 0.592746 20.4797 0.348457 21.1282L0.00717163 22.0408L1.25735 22.3022C2.25606 22.5114 3.25836 22.6108 4.25707 22.6108C8.03636 22.6108 11.6288 21.1595 13.5975 18.6754C13.8202 18.393 14.0107 18.1001 14.1867 17.7968C14.4166 17.8726 14.6429 17.9563 14.8585 18.0478C15.074 18.1394 15.2824 18.2387 15.4872 18.3433C15.2177 18.6022 14.9663 18.8741 14.7435 19.1592C12.2575 22.2944 13.0191 26.2402 16.5972 28.7505L17.5349 29.4068L18.451 28.7348C19.1012 28.2563 19.6688 27.715 20.1322 27.1319C22.6182 23.9967 21.8566 20.0535 18.2749 17.5406L18.2713 17.5432ZM11.3127 17.721C9.67094 19.7893 6.54548 20.9085 3.38051 20.6627C3.47751 20.5163 3.58169 20.3699 3.69305 20.2286C5.33482 18.1603 8.46027 17.0385 11.6252 17.2869C11.5282 17.436 11.4241 17.5798 11.3127 17.721ZM17.851 26.1775C17.7396 26.3187 17.6175 26.4573 17.4918 26.5906C15.6129 24.7184 15.3866 22.1872 17.0283 20.1188C17.1397 19.9776 17.2618 19.839 17.3876 19.7057C19.2629 21.5753 19.4892 24.1091 17.851 26.1775Z" fill="#00A3D8"/>
</svg>
